# xmcd CD database file
#
# Track frame offsets:
#       150
#       30767
#       52423
#       72970
#       96052
#       206979
#       236665
#       253790
#       308201
#       327028
#       341274
#
# Disc length: 4788 seconds
#
# Revision: 1
# Processed by: cddbd v1.5.2PL0 Copyright (c) Steve Scherf et al.
# Submitted via: jack 3.1.1
#
DISCID=9a12b20b
DTITLE=Fleetwood Mac - Boston CD1
DYEAR=2014
DGENRE=Blues
TTITLE0=Black Magic Woman
TTITLE1=Jumping At Shadows
TTITLE2=Like It This Way
TTITLE3=Only You
TTITLE4=Rattlesnake Shake
TTITLE5=I Can't Hold Out
TTITLE6=Got To Move
TTITLE7=The Green Manalishi
TTITLE8=World In Harmony
TTITLE9=Oh Well
TTITLE10=Stranger Blues
EXTD=
EXTT0=
EXTT1=
EXTT2=
EXTT3=
EXTT4=
EXTT5=
EXTT6=
EXTT7=
EXTT8=
EXTT9=
EXTT10=
PLAYORDER=
